<svg height="512pt" viewBox="0 0 512 512" width="512pt" xmlns="http://www.w3.org/2000/svg"><path d="m256 236.539062c-10.714844 0-19.429688 8.714844-19.429688 19.429688s8.714844 19.433594 19.429688 19.433594 19.433594-8.71875 19.433594-19.433594-8.71875-19.429688-19.433594-19.429688zm0 0"/><path d="m165.675781 213.285156 7.089844-12.246094-29.117187-47.164062c-15.160157 16.667969-26.660157 36.71875-33.246094 58.859375zm0 0"/><path d="m338.070312 199.007812 7.070313 12.257813 55.480469-1.695313c-7.0625-21.960937-18.992188-41.761718-34.527344-58.117187zm0 0"/><path d="m303.285156 198.851562 39.671875-67.328124c-8.070312-5.65625-16.710937-10.546876-25.820312-14.566407l-37.335938 69.511719h-49.644531l-38.503906-68.050781c-8.941406 4.199219-17.40625 9.246093-25.296875 15.03125l41.421875 67.097656-24.875 42.960937-78.195313-.773437c-.378906 4.363281-.582031 8.773437-.582031 13.234375 0 5.546875.308594 11.019531.890625 16.414062l78.878906-2.34375 24.78125 43.015626-39.726562 67.296874c8.066406 5.660157 16.707031 10.558594 25.8125 14.585938l37.386719-69.484375 49.644531.039063 38.453125 68.074218c9.011718-4.222656 17.542968-9.308594 25.488281-15.144531l-41.46875-67.066406 24.839844-42.980469 78.199219.71875c.371093-4.328125.574218-8.703125.574218-13.125 0-5.582031-.3125-11.09375-.902344-16.523438l-78.882812 2.402344zm-47.285156 106.601563c-27.285156 0-49.480469-22.199219-49.480469-49.484375s22.195313-49.480469 49.480469-49.480469 49.484375 22.195313 49.484375 49.480469-22.199219 49.484375-49.484375 49.484375zm0 0"/><path d="m247.679688 156.414062h14.152343l26.261719-48.898437c-10.347656-2.234375-21.085938-3.421875-32.09375-3.421875-12.234375 0-24.136719 1.464844-35.542969 4.207031zm0 0"/><path d="m173.886719 312.867188-7.0625-12.257813-55.480469 1.648437c7.046875 21.972657 18.964844 41.78125 34.484375 58.144532zm0 0"/><path d="m346.355469 298.585938-7.082031 12.25 29.152343 47.140624c15.148438-16.675781 26.632813-36.734374 33.203125-58.882812zm0 0"/><path d="m512 241.183594c-3.273438-57.890625-25.710938-112.167969-64.261719-155.464844l-30.695312 30.695312-21.246094-21.25 30.707031-30.707031c-43.28125-38.628906-97.566406-61.132812-155.480468-64.457031v43.484375h-30.050782v-43.484375c-57.910156 3.324219-112.195312 25.828125-155.476562 64.457031l30.707031 30.707031-21.246094 21.25-30.695312-30.695312c-38.550781 43.296875-60.988281 97.574219-64.261719 155.464844h43.273438v30.050781h-43.2460942c3.3710942 57.828125 25.8632812 112.03125 64.4414062 155.253906l30.488281-30.484375 21.246094 21.25-30.46875 30.472656c43.242187 38.5 97.433594 60.929688 155.242187 64.246094v-43.039062h30.050782v43.039062c57.804687-3.316406 111.996094-25.746094 155.242187-64.246094l-30.472656-30.472656 21.25-21.25 30.484375 30.484375c38.578125-43.222656 61.074219-97.425781 64.441406-155.253906h-43.246094v-30.050781zm-256 196.714844c-100.316406 0-181.925781-81.613282-181.925781-181.929688s81.609375-181.925781 181.925781-181.925781 181.929688 81.609375 181.929688 181.925781-81.613282 181.929688-181.929688 181.929688zm0 0"/><path d="m264.246094 355.527344-14.152344-.007813-26.296875 48.878907c10.382813 2.25 21.15625 3.445312 32.203125 3.445312 12.195312 0 24.058594-1.453125 35.433594-4.183594zm0 0"/></svg>