<svg height="512pt" viewBox="0 0 512 512" width="512pt" xmlns="http://www.w3.org/2000/svg"><path d="m437.019531 437.019531c48.351563-48.351562 74.980469-112.640625 74.980469-181.019531s-26.628906-132.667969-74.980469-181.019531c-48.351562-48.351563-112.640625-74.980469-181.019531-74.980469s-132.667969 26.628906-181.019531 74.980469c-48.351563 48.351562-74.980469 112.640625-74.980469 181.019531s26.628906 132.667969 74.980469 181.019531c48.351562 48.351563 112.640625 74.980469 181.019531 74.980469s132.667969-26.628906 181.019531-74.980469zm-181.019531-351.367187c59.90625 0 112.582031 30.925781 142.949219 77.679687h-285.898438c30.367188-46.753906 83.042969-77.679687 142.949219-77.679687zm51.332031 161.464844c0 28.304687-23.027343 51.332031-51.332031 51.332031s-51.332031-23.027344-51.332031-51.332031c0-28.304688 23.027343-51.335938 51.332031-51.335938s51.332031 23.03125 51.332031 51.335938zm-105.59375 170.402343c-64.609375-21.699219-111.914062-81.074219-115.816406-152.015625 42.199219 6.101563 77.183594 31.066406 97.570313 65.160156h144.175781v1.433594c20.253906-34.828125 55.625-60.40625 98.410156-66.59375-3.898437 70.941406-51.207031 130.316406-115.816406 152.015625-2.476563-19.699219-.589844-38.976562 4.898437-56.851562h-118.320312c5.492187 17.875 7.375 37.152343 4.898437 56.851562zm0 0"/><path d="m234.667969 247.117188c0 11.761718 9.570312 21.332031 21.332031 21.332031s21.332031-9.570313 21.332031-21.332031c0-11.765626-9.570312-21.335938-21.332031-21.335938s-21.332031 9.570312-21.332031 21.335938zm0 0"/></svg>