<svg height="512pt" viewBox="0 0 512 512" width="512pt" xmlns="http://www.w3.org/2000/svg"><path d="m391.882812 271v-30h37.464844c-3.152344-36.726562-17.757812-70.226562-40.222656-96.910156l-26.433594 26.433594-21.214844-21.214844 26.433594-26.429688c-26.679687-22.46875-60.183594-37.074218-96.910156-40.226562v37.464844h-30v-37.464844c-36.726562 3.152344-70.226562 17.757812-96.910156 40.226562l26.433594 26.429688-21.210938 21.214844-26.433594-26.433594c-22.46875 26.683594-37.074218 60.183594-40.222656 96.910156h37.460938v30h-37.464844c7.632812 88.945312 82.457031 159 173.347656 159s165.714844-70.054688 173.347656-159zm-93.832031 112.25h-84.101562v-30h84.101562zm-27.050781-84.765625v21.808594h-30v-21.808594c-17.492188-6.195313-30.0625-22.894531-30.0625-42.484375s12.570312-36.289062 30.0625-42.484375v-51.347656h30v51.347656c17.492188 6.195313 30.0625 22.894531 30.0625 42.484375s-12.570312 36.289062-30.0625 42.484375zm0 0"/><path d="m256 240.9375c-8.304688 0-15.0625 6.757812-15.0625 15.0625s6.757812 15.0625 15.0625 15.0625 15.0625-6.757812 15.0625-15.0625-6.757812-15.0625-15.0625-15.0625zm0 0"/><path d="m437.019531 74.980469c-48.351562-48.351563-112.640625-74.980469-181.019531-74.980469s-132.667969 26.628906-181.019531 74.980469c-48.351563 48.351562-74.980469 112.640625-74.980469 181.019531s26.628906 132.667969 74.980469 181.019531c48.351562 48.351563 112.640625 74.980469 181.019531 74.980469s132.667969-26.628906 181.019531-74.980469c48.351563-48.351562 74.980469-112.640625 74.980469-181.019531s-26.628906-132.667969-74.980469-181.019531zm-181.019531 385.019531c-112.484375 0-204-91.515625-204-204s91.515625-204 204-204 204 91.515625 204 204-91.515625 204-204 204zm0 0"/></svg>