<svg height="512pt" viewBox="0 0 512 512" width="512pt" xmlns="http://www.w3.org/2000/svg"><path d="m256 224c-17.644531 0-32 14.355469-32 32s14.355469 32 32 32 32-14.355469 32-32-14.355469-32-32-32zm0 0"/><path d="m256 160c-52.933594 0-96 43.066406-96 96s43.066406 96 96 96 96-43.066406 96-96-43.066406-96-96-96zm0 158c-34.1875 0-62-27.8125-62-62s27.8125-62 62-62 62 27.8125 62 62-27.8125 62-62 62zm0 0"/><path d="m512 303.761719v-95.523438l-75.65625-11.535156c-2.964844-9.027344-6.609375-17.824219-10.894531-26.296875l45.339843-61.652344-67.542968-67.542968-61.652344 45.339843c-8.476562-4.285156-17.269531-7.929687-26.296875-10.894531l-11.535156-75.65625h-95.523438l-11.535156 75.65625c-9.027344 2.964844-17.824219 6.609375-26.296875 10.894531l-61.652344-45.339843-67.542968 67.542968 45.339843 61.652344c-4.285156 8.476562-7.929687 17.269531-10.894531 26.296875l-75.65625 11.535156v95.523438l75.65625 11.535156c2.964844 9.027344 6.609375 17.824219 10.894531 26.296875l-45.339843 61.652344 67.542968 67.542968 61.652344-45.339843c8.476562 4.285156 17.269531 7.929687 26.296875 10.894531l11.535156 75.65625h95.523438l11.535156-75.65625c9.027344-2.964844 17.820313-6.609375 26.296875-10.894531l61.652344 45.339843 67.542968-67.542968-45.339843-61.652344c4.285156-8.476562 7.929687-17.269531 10.894531-26.296875zm-256 78.238281c-69.476562 0-126-56.523438-126-126s56.523438-126 126-126 126 56.523438 126 126-56.523438 126-126 126zm0 0"/></svg>