<svg height="512pt" viewBox="-76 0 512 512" width="512pt" xmlns="http://www.w3.org/2000/svg"><path d="m266.625 262h-173.128906v158h173.128906zm-88.609375 139.351562c-25.457031 0-46.171875-20.710937-46.171875-46.171874 0-21.128907 26.628906-53.78125 34.792969-63.285157l11.378906-13.25 11.378906 13.25c8.164063 9.503907 34.792969 42.15625 34.792969 63.285157 0 25.457031-20.714844 46.171874-46.171875 46.171874zm0 0"/><path d="m161.84375 355.1875c0 8.910156 7.253906 16.164062 16.171875 16.164062 8.914063 0 16.167969-7.25 16.171875-16.167968-.097656-4.519532-6.972656-16.648438-16.167969-29.308594-9.203125 12.675781-16.082031 24.808594-16.175781 29.3125zm0 0"/><path d="m48.597656 0h155.367188v59.53125h-155.367188zm0 0"/><path d="m220.382812 89.53125h-174.734374l-45.648438 94.546875v327.921875h360.121094v-332.679688zm-115.535156 79.46875h133v30h-133zm191.777344 281h-233.128906v-218h233.128906zm0 0"/></svg>