<svg height="512pt" viewBox="0 0 512 512" width="512pt" xmlns="http://www.w3.org/2000/svg"><path d="m414.230469 94.5-36.117188-94.5h-244.226562l-36.117188 94.5zm0 0"/><path d="m426.027344 304.789062c2.453125-5.824218 3.8125-12.222656 3.8125-18.929687v-9.164063h-97.855469v9.164063c0 6.707031 1.359375 13.105469 3.8125 18.929687h-159.59375c2.453125-5.824218 3.8125-12.222656 3.8125-18.929687v-9.164063h-97.855469v9.164063c0 6.707031 1.359375 13.105469 3.8125 18.929687h-85.972656v92.351563h94.148438l127.464843 64.09375-100.953125 50.765625h66.777344l67.5625-33.976562 67.5625 33.976562h66.773438l-100.949219-50.765625 127.464843-64.09375h96.148438v-92.351563zm-171.027344 139.65625-94.074219-47.308593h188.148438zm0 0"/><path d="m194.601562 246.695312v-62.445312h122.796876v62.445312h139.390624v-73.128906c0-21.5625-12.59375-40.234375-30.808593-49.066406h-339.960938c-18.214843 8.832031-30.808593 27.503906-30.808593 49.066406v73.128906zm173.132813-68.195312c11.460937 0 20.75 9.289062 20.75 20.75s-9.289063 20.75-20.75 20.75-20.75-9.289062-20.75-20.75 9.292969-20.75 20.75-20.75zm-228.984375 0c11.460938 0 20.75 9.289062 20.75 20.75s-9.289062 20.75-20.75 20.75-20.75-9.289062-20.75-20.75 9.289062-20.75 20.75-20.75zm0 0"/><path d="m224.601562 214.25h62.796876v32.445312h-62.796876zm0 0"/></svg>