<svg height="512pt" viewBox="0 0 512 512" width="512pt" xmlns="http://www.w3.org/2000/svg"><path d="m157.492188 210.574219 8.707031-15.039063-33.574219-54.390625c-17.964844 19.285157-31.484375 42.765625-38.882812 68.796875zm0 0"/><path d="m256 233.085938c-12.636719 0-22.914062 10.277343-22.914062 22.914062s10.277343 22.914062 22.914062 22.914062 22.914062-10.277343 22.914062-22.914062-10.277343-22.914062-22.914062-22.914062zm0 0"/><path d="m344.53125 193.316406 8.6875 15.050782 63.992188-1.949219c-7.960938-25.828125-21.972657-49.023438-40.367188-67.933594zm0 0"/><path d="m423.890625 271.988281c.496094-5.265625.761719-10.597656.761719-15.988281 0-6.683594-.402344-13.277344-1.164063-19.761719l-87.289062 2.664063-26.394531-45.746094 43.921874-74.535156c-9.671874-6.898438-20.105468-12.796875-31.136718-17.558594l-41.316406 76.925781h-52.8125l-42.628907-75.332031c-10.835937 4.976562-21.0625 11.066406-30.519531 18.125l45.839844 74.257812-26.464844 45.703126-86.566406-.855469c-.503906 5.304687-.773438 10.675781-.773438 16.109375 0 6.644531.398438 13.191406 1.148438 19.636718l87.292968-2.59375 26.359376 45.765626-43.976563 74.496093c9.667969 6.910157 20.09375 12.816407 31.125 17.585938l41.375-76.898438 52.8125.039063 42.570313 75.367187c10.917968-5.003906 21.214843-11.136719 30.734374-18.253906l-45.898437-74.222656 26.429687-45.726563zm-167.890625 36.925781c-29.179688 0-52.914062-23.738281-52.914062-52.914062s23.734374-52.914062 52.914062-52.914062 52.914062 23.738281 52.914062 52.914062-23.734374 52.914062-52.914062 52.914062zm0 0"/><path d="m245.953125 147.988281h17.378906l30.292969-56.402343c-12.101562-2.769532-24.695312-4.238282-37.625-4.238282-14.296875 0-28.179688 1.792969-41.441406 5.160156zm0 0"/><path d="m437.019531 74.980469c-48.351562-48.351563-112.640625-74.980469-181.019531-74.980469s-132.667969 26.628906-181.019531 74.980469c-48.351563 48.351562-74.980469 112.640625-74.980469 181.019531s26.628906 132.667969 74.980469 181.019531c48.351562 48.351563 112.640625 74.980469 181.019531 74.980469s132.667969-26.628906 181.019531-74.980469c48.351563-48.351562 74.980469-112.640625 74.980469-181.019531s-26.628906-132.667969-74.980469-181.019531zm-181.019531 379.671875c-109.535156 0-198.652344-89.117188-198.652344-198.652344s89.117188-198.652344 198.652344-198.652344 198.652344 89.117188 198.652344 198.652344-89.117188 198.652344-198.652344 198.652344zm0 0"/><path d="m167.421875 318.617188-8.675781-15.058594-63.992188 1.902344c7.941406 25.835937 21.933594 49.039062 40.316406 67.964843zm0 0"/><path d="m354.539062 301.351562-8.695312 15.046876 33.617188 54.363281c17.949218-19.296875 31.449218-42.785157 38.832031-68.824219zm0 0"/><path d="m265.96875 364.019531-17.378906-.015625-30.339844 56.386719c12.140625 2.785156 24.777344 4.261719 37.75 4.261719 14.253906 0 28.09375-1.785156 41.320312-5.128906zm0 0"/></svg>