<svg height="512pt" viewBox="0 0 512 512" width="512pt" xmlns="http://www.w3.org/2000/svg"><path d="m0 389.464844 64.875 27.125v-51.046875l-64.875-27.125zm0 0"/><path d="m0 305.902344 64.875 27.125v-51.042969l-64.875-27.125zm0 0"/><path d="m0 222.34375 64.875 27.125v-51.046875l-64.875-27.125zm0 0"/><path d="m166.699219 416.59375 64.917969-27.925781v-50.902344l-64.917969 27.925781zm0 0"/><path d="m0 138.78125 64.875 27.125v-51.042969l-64.875-27.125zm0 0"/><path d="m94.875 0h41.824219v512h-41.824219zm0 0"/><path d="m0 433.5c0 38.636719 28.066406 70.820312 64.875 77.292969v-61.6875l-64.875-27.125zm0 0"/><path d="m166.699219 510.800781c36.832031-6.453125 64.917969-38.648437 64.917969-77.300781v-12.175781l-64.917969 27.929687zm0 0"/><path d="m3.148438 56.535156 61.726562 25.808594v-81.136719c-29.546875 5.195313-53.441406 26.957031-61.726562 55.328125zm0 0"/><path d="m231.617188 170.644531-64.917969 27.925781v50.902344l64.917969-27.925781v32.65625l-64.917969 27.929687v50.902344l64.917969-27.929687v25.964843h48.382812v-150.140624h-48.382812zm0 0"/><path d="m231.617188 87.082031-64.917969 27.929688v50.898437l64.917969-27.925781zm0 0"/><path d="m166.699219 1.199219v81.152343l61.578125-26.492187c-8.46875-28.054687-32.246094-49.519531-61.578125-54.660156zm0 0"/><path d="m450.066406 207v-41.644531h6.738282c16.199218 0 29.332031-13.132813 29.332031-29.332031v-2.261719c0-16.199219-13.132813-29.332031-29.332031-29.332031 16.199218 0 29.332031-13.132813 29.332031-29.332032v-2.261718c0-16.203126-13.132813-29.335938-29.332031-29.335938h-106.117188c-16.203125 0-29.335938 13.132812-29.335938 29.335938v2.261718c0 16.199219 13.132813 29.332032 29.335938 29.332032-16.203125 0-29.335938 13.132812-29.335938 29.332031v2.261719c0 16.199218 13.132813 29.332031 29.335938 29.332031h6.734375v41.644531h-47.421875v98h202v-98zm0 0"/></svg>