<svg height="512pt" viewBox="-109 0 512 512" width="512pt" xmlns="http://www.w3.org/2000/svg"><path d="m0 88.667969h294.035156v28.667969h-294.035156zm0 0"/><path d="m0 0h294.035156v58.667969h-294.035156zm0 0"/><path d="m213.222656 247.773438 3.925782 9.015624h76.886718v-109.457031h-294.035156v109.457031h76.890625l3.921875-9.015624c4.757812-10.933594 11.847656-19.449219 21.207031-25.53125v153.671874c-18.496093 13.777344-30.5 35.804688-30.5 60.585938 0 41.632812 33.867188 75.5 75.5 75.5 41.628907 0 75.5-33.867188 75.5-75.5 0-24.78125-12.003906-46.808594-30.5-60.585938v-153.671874c9.355469 6.082031 16.449219 14.597656 21.203125 25.53125zm-66.203125 206.894531c-10.035156 0-18.167969-8.132813-18.167969-18.167969s8.132813-18.167969 18.167969-18.167969c10.03125 0 18.164063 8.132813 18.164063 18.167969s-8.132813 18.167969-18.164063 18.167969zm0 0"/></svg>