<svg height="512pt" viewBox="-55 0 512 512" width="512pt" xmlns="http://www.w3.org/2000/svg"><path d="m139.394531 246.695312v-62.445312h122.792969v62.445312h139.390625v-73.128906c0-21.5625-12.59375-40.234375-30.808594-49.066406h-339.960937c-18.214844 8.832031-30.808594 27.503906-30.808594 49.066406v73.128906zm173.128907-68.195312c11.460937 0 20.75 9.289062 20.75 20.75s-9.289063 20.75-20.75 20.75c-11.457032 0-20.75-9.289062-20.75-20.75s9.292968-20.75 20.75-20.75zm-228.984376 0c11.460938 0 20.75 9.289062 20.75 20.75s-9.289062 20.75-20.75 20.75c-11.460937 0-20.75-9.289062-20.75-20.75s9.289063-20.75 20.75-20.75zm0 0"/><path d="m169.394531 214.25h62.792969v32.445312h-62.792969zm0 0"/><path d="m145.339844 94.5-41.21875-34.058594 19.109375-23.128906 69.203125 57.1875h54.996094l-41.214844-34.058594 19.109375-23.128906 69.203125 57.1875h64.492187l-36.117187-94.5h-244.222656l-36.121094 94.5zm0 0"/><path d="m276.773438 285.859375c0 26.980469 21.949218 48.929687 48.929687 48.929687 26.976563 0 48.925781-21.949218 48.925781-48.929687v-9.164063h-97.855468zm0 0"/><path d="m245.839844 276.695312h-90.101563v205.304688h-26.617187v30h143.335937v-30h-26.617187zm0 0"/><path d="m26.949219 285.859375c0 26.980469 21.949219 48.929687 48.929687 48.929687 26.976563 0 48.925782-21.949218 48.925782-48.929687v-9.164063h-97.855469zm0 0"/></svg>