<svg height="512pt" viewBox="0 -76 512 512" width="512pt" xmlns="http://www.w3.org/2000/svg"><path d="m309.539062 86.585938h-206.441406c-10.078125 0-18.277344 8.199218-18.277344 18.277343v82.898438c0 10.078125 8.199219 18.277343 18.277344 18.277343h182.246094l42.476562-42.472656v-58.703125c-.003906-10.078125-8.203124-18.277343-18.28125-18.277343zm0 0"/><path d="m512 269.625h-59.171875l-12.988281-12.988281-64.34375 64.34375 39.652344 39.636719 96.851562.007812zm0 0"/><path d="m412.605469 194.050781.007812-1.011719.003907.011719c.011718-.332031.019531-.664062.019531-1v-91.476562c0-55.457031-45.117188-100.574219-100.574219-100.574219h-211.488281c-55.457031 0-100.574219 45.117188-100.574219 100.574219v91.476562c0 55.457031 45.117188 100.574219 100.574219 100.574219h211.488281c.320312 0 .640625-.007812 1.039062-.019531l.292969-.003907 24.027344 24.027344 98.878906-98.878906zm-54.789063-18.058593-60.046875 60.046874h-194.671875c-26.621094 0-48.277344-21.65625-48.277344-48.277343v-82.898438c0-26.621093 21.65625-48.277343 48.277344-48.277343h206.441406c26.621094 0 48.277344 21.65625 48.277344 48.277343zm0 0"/></svg>