<svg height="512pt" viewBox="0 -55 512 512" width="512pt" xmlns="http://www.w3.org/2000/svg"><path d="m24.492188 120.644531c-16.253907 25.410157-24.492188 52.515625-24.492188 80.5625 0 28.050781 8.238281 55.15625 24.492188 80.5625 15.320312 23.953125 37.089843 45.355469 64.707031 63.621094 33.238281 21.976563 72.925781 38.050781 116.15625 47.429687v-383.222656c-43.230469 9.378906-82.917969 25.449219-116.15625 47.429688-27.617188 18.261718-49.386719 39.667968-64.707031 63.617187zm0 0"/><path d="m235.355469 4.257812v393.902344c19.925781 2.804688 40.417969 4.253906 61.234375 4.253906h15v-402.414062h-15c-20.816406 0-41.308594 1.453125-61.234375 4.257812zm0 0"/><path d="m365.058594 58.195312-8.941406 28.636719 155.882812 48.664063v-31.429688zm0 0"/><path d="m356.117188 162.808594 155.882812 48.664062v-31.425781l-146.941406-45.875zm0 0"/><path d="m356.117188 238.789062 155.882812 48.660157v-31.425781l-146.941406-45.871094zm0 0"/><path d="m356.117188 314.765625 155.882812 48.664063v-31.429688l-146.941406-45.871094zm0 0"/></svg>