<svg height="512pt" viewBox="-115 0 512 512" width="512pt" xmlns="http://www.w3.org/2000/svg"><path d="m206.484375 28.835938h29.5v29.5h-29.5zm0 0"/><path d="m251.984375 28.835938h29.5v29.5h-29.5zm0 0"/><path d="m157.121094 105.332031h-25.085938v-18.160156h29.085938v-28.585937h24.414062v-30h-24.414062v-28.585938h-87.171875v87.171875h28.085937v18.160156h-25.089844c-35.019531 0-63.640624 27.84375-64.9375 62.554688h210.054688c-1.296875-34.710938-29.917969-62.554688-64.941406-62.554688zm0 0"/><path d="m156.035156 292h78.035156v103.816406h-78.035156zm0 0"/><path d="m0 512h234.070312v-86.183594h-108.035156v-163.816406h108.035156v-64.113281h-234.070312zm0 0"/></svg>