<svg height="512pt" viewBox="0 0 512 512" width="512pt" xmlns="http://www.w3.org/2000/svg"><path d="m235.078125 0h41.820313v512h-41.820313zm0 0"/><path d="m205.078125 365.546875-64.578125-27.003906v51.046875l64.578125 27zm0 0"/><path d="m306.898438 333.035156 64.601562-27.792968v-50.898438l-64.601562 27.789062zm0 0"/><path d="m140.5 171.421875v51.046875l64.578125 27v-51.046875zm0 0"/><path d="m140.5 138.90625 64.578125 27v-51.042969l-64.578125-27zm0 0"/><path d="m205.078125 281.984375-64.578125-27v51.042969l64.578125 27zm0 0"/><path d="m306.898438 198.570312v50.902344l64.601562-27.789062v-50.902344zm0 0"/><path d="m371.5 421.464844-64.601562 27.789062v61.546875c34.625-6.066406 61.5-34.878906 64.601562-70.421875zm0 0"/><path d="m110.5 337.453125v-162.90625h-51.5v35.953125h-59v91h59v35.953125zm0 0"/><path d="m205.078125 449.105469-64.578125-27v18.015625c2.992188 35.644531 29.894531 64.574218 64.578125 70.671875zm0 0"/><path d="m453 210.5v-35.953125h-51.5v162.90625h51.5v-35.953125h59v-91zm0 0"/><path d="m306.898438 82.351562 61.578124-26.492187c-8.464843-28.054687-32.242187-49.519531-61.578124-54.660156zm0 0"/><path d="m371.5 337.902344-64.601562 27.789062v50.902344l64.601562-27.789062zm0 0"/><path d="m306.898438 165.910156 64.601562-27.789062v-50.902344l-64.601562 27.792969zm0 0"/><path d="m205.078125 82.347656v-81.140625c-29.546875 5.195313-53.445313 26.957031-61.726563 55.328125zm0 0"/></svg>