<svg height="512pt" viewBox="-67 0 512 512" width="512pt" xmlns="http://www.w3.org/2000/svg"><path d="m189 251c-8.550781 0-15.507812 6.957031-15.507812 15.507812 0 8.550782 6.957031 15.507813 15.507812 15.507813s15.507812-6.957031 15.507812-15.507813c0-8.550781-6.957031-15.507812-15.507812-15.507812zm0 0"/><path d="m128.5 454.308594h121v57.691406h-121zm0 0"/><path d="m189 0c-104.214844 0-189 84.785156-189 189 0 74.984375 43.894531 139.90625 107.332031 170.429688v64.882812h163.332031v-64.882812c63.441407-30.523438 107.335938-95.445313 107.335938-170.429688 0-104.214844-84.785156-189-189-189zm0 312.015625c-25.09375 0-45.507812-20.417969-45.507812-45.507813 0-19.839843 12.765624-36.742187 30.507812-42.957031v-78.628906h30v78.628906c17.742188 6.214844 30.507812 23.117188 30.507812 42.957031 0 25.09375-20.414062 45.507813-45.507812 45.507813zm91.996094-131.015625c0-50.726562-41.269532-91.996094-91.996094-91.996094s-91.996094 41.269532-91.996094 91.996094h-30c0-67.269531 54.726563-121.996094 121.996094-121.996094s121.996094 54.726563 121.996094 121.996094zm0 0"/></svg>