<svg height="512pt" viewBox="0 -35 512 512" width="512pt" xmlns="http://www.w3.org/2000/svg"><path d="m443.113281 255.191406-21.902343-11.375c-11.175782-5.800781-25.101563-5.867187-36.355469-.167968l-23.410157 11.859374c-10.015624 5.074219-21.21875 7.609376-32.414062 7.609376-11.4375 0-22.867188-2.644532-33.035156-7.925782l-21.902344-11.375c-11.175781-5.800781-25.105469-5.867187-36.355469-.167968l-23.410156 11.859374c-20.25 10.257813-45.328125 10.136719-65.449219-.3125l-21.90625-11.378906c-11.171875-5.800781-25.101562-5.867187-36.351562-.167968l-23.410156 11.859374c-20.25 10.257813-45.332032 10.136719-65.453126-.3125l-1.757812-.914062v34.644531l16.472656 8.554688c11.160156 5.796875 25.070313 5.859375 36.304688.167969l23.410156-11.859376c20.265625-10.265624 45.363281-10.144531 65.5.316407l21.902344 11.375c11.160156 5.796875 25.070312 5.859375 36.308594.167969l23.410156-11.859376c20.261718-10.265624 45.359375-10.144531 65.5.3125l21.902344 11.375c11.15625 5.796876 25.066406 5.863282 36.304687.171876l23.410156-11.859376c20.265625-10.265624 45.359375-10.144531 65.5.3125l21.902344 11.375c11.15625 5.796876 25.070313 5.863282 36.304687.171876l17.867188-9.050782v-34.832031l-3.4375 1.738281c-20.246094 10.261719-45.324219 10.140625-65.449219-.3125zm0 0"/><path d="m476.148438 331.824219c-11.433594 0-22.867188-2.640625-33.035157-7.921875l-21.902343-11.375c-11.175782-5.804688-25.101563-5.871094-36.355469-.171875l-23.410157 11.859375c-20.25 10.257812-45.328124 10.140625-65.449218-.3125l-21.902344-11.375c-11.171875-5.804688-25.101562-5.867188-36.355469-.167969l-23.410156 11.859375c-20.25 10.253906-45.328125 10.136719-65.449219-.316406l-21.902344-11.375c-11.175781-5.804688-25.105468-5.867188-36.355468-.167969l-23.410156 11.859375c-20.25 10.257812-45.328126 10.136719-65.449219-.316406l-1.761719-.914063v34.644531l16.472656 8.554688c11.160156 5.796875 25.070313 5.863281 36.304688.167969l23.410156-11.855469c20.265625-10.265625 45.367188-10.144531 65.5.3125l21.90625 11.375c11.15625 5.796875 25.070312 5.863281 36.304688.167969l23.410156-11.855469c20.265625-10.265625 45.363281-10.144531 65.5.3125l21.902344 11.375c11.15625 5.796875 25.066406 5.863281 36.304687.167969l23.410156-11.859375c20.265625-10.261719 45.363281-10.144532 65.5.316406l21.902344 11.375c11.15625 5.792969 25.070313 5.859375 36.304687.167969l17.867188-9.050781v-34.832032l-3.4375 1.742188c-10.015625 5.074218-21.214844 7.609375-32.414062 7.609375zm0 0"/><path d="m0 118.5v101.714844l16.472656 8.558594c11.160156 5.796874 25.070313 5.859374 36.304688.167968l23.410156-11.859375c20.265625-10.265625 45.363281-10.144531 65.5.3125l21.90625 11.378907c11.15625 5.792968 25.066406 5.859374 36.304688.167968l23.410156-11.859375c20.261718-10.265625 45.363281-10.144531 65.496094.3125l21.90625 11.378907c11.15625 5.796874 25.070312 5.859374 36.304687.167968l23.410156-11.859375c20.265625-10.265625 45.363281-10.144531 65.5.3125l21.902344 11.378907c11.160156 5.796874 25.070313 5.859374 36.304687.167968l17.867188-9.050781v-101.390625h-331.332031v-25.5h20.832031v-93h-161.667969v93h20.832031v25.5zm0 0"/><path d="m508.566406 392.925781c-20.25 10.257813-45.332031 10.136719-65.449218-.316406l-21.90625-11.375c-11.171876-5.804687-25.101563-5.867187-36.351563-.167969l-23.414063 11.859375c-10.015624 5.074219-21.21875 7.609375-32.414062 7.609375-11.433594 0-22.867188-2.644531-33.035156-7.925781l-21.902344-11.375c-11.171875-5.804687-25.101562-5.867187-36.355469-.167969l-23.410156 11.859375c-20.25 10.257813-45.324219 10.132813-65.449219-.316406l-21.902344-11.375c-11.175781-5.804687-25.105468-5.867187-36.355468-.167969l-23.410156 11.859375c-20.25 10.257813-45.328126 10.132813-65.449219-.316406l-1.761719-.914063v49.804688h512v-50.316406zm0 0"/></svg>