<svg height="512pt" viewBox="0 -55 512.00002 512" width="512pt" xmlns="http://www.w3.org/2000/svg"><path d="m273.460938 129.011719c18.480468 18.507812 29.929687 44.039062 29.929687 72.199219 0 56.339843-45.839844 102.1875-102.191406 102.1875-56.347657 0-102.1875-45.847657-102.1875-102.1875 0-55.03125 43.707031-100.039063 98.238281-102.121094 1.308594-.050782 2.628906-.078125 3.949219-.078125h166.800781v-99.011719h-166.800781c-110.9375 0-201.199219 90.261719-201.199219 201.210938 0 110.9375 90.261719 201.199218 201.199219 201.199218 110.949219 0 201.199219-90.261718 201.199219-201.199218 0-25.429688-4.738282-49.78125-13.386719-72.199219zm0 0"/><path d="m398 0h30.671875v99.011719h-30.671875zm0 0"/><path d="m458.671875 0h53.328125v99.011719h-53.328125zm0 0"/><path d="m186.199219 271.828125c4.839843 1.03125 9.859375 1.570313 15 1.570313s10.160156-.539063 15-1.570313v-32.429687h-30zm0 0"/><path d="m239.390625 216.210938h32.429687c1.03125-4.839844 1.570313-9.859376 1.570313-15 0-5.140626-.539063-10.160157-1.570313-15h-32.429687zm0 0"/><path d="m130.578125 216.210938h32.433594v-30h-32.433594c-1.027344 4.839843-1.566406 9.859374-1.566406 15 0 5.140624.539062 10.160156 1.566406 15zm0 0"/><path d="m216.75 201.203125c0 8.589844-6.960938 15.550781-15.546875 15.550781-8.589844 0-15.550781-6.960937-15.550781-15.550781 0-8.585937 6.960937-15.546875 15.550781-15.546875 8.585937 0 15.546875 6.960938 15.546875 15.546875zm0 0"/><path d="m216.199219 130.578125c-4.839844-1.027344-9.859375-1.566406-15-1.566406s-10.160157.539062-15 1.566406v32.441406h30zm0 0"/></svg>