<svg height="512pt" viewBox="-48 0 512 512" width="512pt" xmlns="http://www.w3.org/2000/svg"><path d="m0 444h373v68h-373zm0 0"/><path d="m82.15625 62.332031h208.6875v84.539063h-208.6875zm0 0"/><path d="m355.242188 81.039062v-81.039062h-337.484376v213h337.484376v-18h30.257812v139.871094c0 8.34375-6.785156 15.128906-15.128906 15.128906s-15.128906-6.785156-15.128906-15.128906v-91.871094h-337.484376v171h337.484376v-36.617188c4.730468 1.6875 9.824218 2.617188 15.128906 2.617188 24.882812 0 45.128906-20.246094 45.128906-45.128906v-226.15625zm-34.398438 95.832032h-268.6875v-144.539063h268.6875zm64.65625-11.871094h-30.257812v-50.949219l30.257812 13.898438zm0 0"/></svg>