<svg height="512pt" viewBox="-74 0 512 512" width="512pt" xmlns="http://www.w3.org/2000/svg"><path d="m299 177.332031h26c21.503906 0 39-17.492187 39-39v-99.332031c0-21.503906-17.496094-39-39-39h-26c-21.503906 0-39 17.496094-39 39v34.667969h-26.5v-30.5h-103v30.5h-26.5v-34.667969c0-21.503906-17.496094-39-39-39h-26c-21.503906 0-39 17.496094-39 39v99.332031c0 21.507813 17.496094 39 39 39h26c21.503906 0 39-17.492187 39-39v-34.664062h26.5v30.5h36.5v45.332031h-41v153h41v43.5h-36.5v32.332031h-26.5v-34.664062c0-21.507813-17.496094-39-39-39h-26c-21.503906 0-39 17.492187-39 39v99.332031c0 21.503906 17.496094 39 39 39h26c21.503906 0 39-17.496094 39-39v-34.667969h26.5v28.667969h103v-28.667969h26.5v34.667969c0 21.503906 17.496094 39 39 39h26c21.503906 0 39-17.496094 39-39v-99.332031c0-21.507813-17.496094-39-39-39h-26c-21.503906 0-39 17.492187-39 39v34.664062h-26.5v-32.332031h-36.5v-43.5h41v-153h-41v-45.332031h36.5v-30.5h26.5v34.664062c0 21.507813 17.496094 39 39 39zm0 0"/></svg>