<svg height="512pt" viewBox="0 0 512.00094 512" width="512pt" xmlns="http://www.w3.org/2000/svg"><path d="m460.257812 152.417969 51.742188-51.742188-39.730469-39.734375 30.667969-30.671875-21.207031-21.207031-30.667969 30.671875-39.738281-39.734375-51.738281 51.742188zm0 0"/><path d="m49.03125 345.457031 25.65625-25.65625 117.507812 117.507813-25.65625 25.65625zm0 0"/><path d="m0 394.488281 27.824219-27.824219 117.507812 117.507813-27.824219 27.824219zm0 0"/><path d="m439.050781 173.625-100.671875-100.675781-135.714844 135.714843-29.300781-29.300781-74.644531 74.644531 20.882812 20.882813-23.703124 23.707031 117.507812 117.507813 23.703125-23.703125 20.882813 20.882812 74.648437-74.644531-29.300781-29.300781zm0 0"/></svg>