<svg height="512pt" viewBox="0 -28 512 512" width="512pt" xmlns="http://www.w3.org/2000/svg"><path d="m18 150.816406h42.769531v211.183594h-42.769531zm0 0"/><path d="m90.769531 150.816406h42.09375v211.183594h-42.09375zm0 0"/><path d="m512 120.816406v-64h-29.5v-27.484375h-30v27.484375h-40.5v-56.816406h-225.796875v56.816406h-126.703125v-27.484375h-30v27.484375h-29.5v64zm0 0"/><path d="m0 392h512v64h-512zm0 0"/><path d="m162.863281 150.816406h42.089844v211.183594h-42.089844zm0 0"/><path d="m234.953125 150.816406h42.09375v211.183594h-42.09375zm0 0"/><path d="m451.230469 150.816406h40.769531v211.183594h-40.769531zm0 0"/><path d="m379.136719 150.816406h42.09375v211.183594h-42.09375zm0 0"/><path d="m307.046875 150.816406h42.089844v211.183594h-42.089844zm0 0"/></svg>