<svg height="512pt" viewBox="0 0 512 512" width="512pt" xmlns="http://www.w3.org/2000/svg"><path d="m93.433594 330.09375-17.777344-17.769531-61.945312 61.933593 26.546874 26.550782c-8.828124 2.675781-16.917968 7.496094-23.621093 14.210937-10.734375 10.722657-16.636719 24.992188-16.636719 40.167969 0 15.179688 5.902344 29.441406 16.636719 40.175781s24.996093 16.636719 40.175781 16.636719c15.175781 0 29.445312-5.902344 40.167969-16.636719 6.714843-6.703125 11.535156-14.792969 14.210937-23.621093l26.550782 26.546874 61.933593-61.945312-17.769531-17.777344 15.054688-15.054687-65.191407-111.753907zm0 0"/><path d="m153.746094 269.78125 65.191406 111.753906 21.738281-21.738281-65.191406-111.753906zm0 0"/><path d="m197.460938 226.066406 65.195312 111.753906 21.734375-21.738281-65.191406-111.753906zm0 0"/><path d="m241.175781 182.347656 65.195313 111.753906 21.726562-21.726562-65.191406-111.753906zm0 0"/><path d="m284.894531 138.632812 65.191407 111.753907 21.726562-21.726563-65.191406-111.753906zm0 0"/><path d="m480.902344 92.933594c5.109375-2.265625 9.890625-5.472656 14.082031-9.660156 9.128906-9.132813 13.6875-21.128907 13.6875-33.125 0-11.996094-4.558594-23.992188-13.6875-33.132813-8.851563-8.847656-20.617187-13.71875-33.132813-13.71875-12.519531 0-24.273437 4.871094-33.125 13.71875-4.1875 4.191406-7.394531 8.972656-9.660156 14.082031l-31.097656-31.097656-61.9375 61.945312 17.78125 17.769532-15.214844 15.210937 65.195313 111.757813 38.492187-38.496094 17.769532 17.78125 61.945312-61.9375zm0 0"/><path d="m141.5 248.785156-25.96875 15.140625 16.238281 27.832031 21.976563-21.976562zm0 0"/><path d="m209.207031 424.507812 25.96875-15.152343-16.238281-27.820313-21.976562 21.976563zm0 0"/><path d="m185.214844 205.070312-25.964844 15.152344 16.234375 27.820313 21.976563-21.976563zm0 0"/><path d="m252.921875 380.792969 25.96875-15.152344-16.234375-27.820313-21.980469 21.976563zm0 0"/><path d="m228.929688 161.351562-25.964844 15.15625 16.234375 27.820313 21.976562-21.980469zm0 0"/><path d="m296.640625 337.078125 25.964844-15.144531-16.234375-27.832032-21.980469 21.980469zm0 0"/><path d="m272.644531 117.636719-25.976562 15.152343 16.238281 27.832032 21.988281-21.988282zm0 0"/><path d="m340.34375 293.371094 25.976562-15.152344-16.234374-27.832031-21.988282 21.988281zm0 0"/><path d="m316.351562 73.933594-25.964843 15.140625 16.234375 27.832031 21.976562-21.980469zm0 0"/><path d="m384.058594 249.65625 25.96875-15.152344-16.234375-27.820312-21.980469 21.976562zm0 0"/></svg>