<svg height="512pt" viewBox="-63 0 512 512" width="512pt" xmlns="http://www.w3.org/2000/svg"><path d="m123.820312 400.894531c-10.253906 0-18.59375 8.34375-18.59375 18.597657 0 10.253906 8.339844 18.597656 18.59375 18.597656 10.253907 0 18.597657-8.34375 18.597657-18.597656 0-10.253907-8.34375-18.597657-18.597657-18.597657zm0 0"/><path d="m114.011719 122.027344 24.441406-17.445313 62.226563 87.195313h106.21875v-114.148438h-227.894532v114.148438h84.785156zm0 0"/><path d="m262.078125 400.894531c-10.253906 0-18.597656 8.34375-18.597656 18.597657 0 10.253906 8.34375 18.597656 18.597656 18.597656s18.597656-8.34375 18.597656-18.597656c0-10.253907-8.34375-18.597657-18.597656-18.597657zm0 0"/><path d="m0 0v512h385.898438v-512zm123.820312 468.117188c-26.808593 0-48.621093-21.8125-48.621093-48.625 0-26.808594 21.8125-48.621094 48.621093-48.621094 26.8125 0 48.625 21.8125 48.625 48.621094 0 26.8125-21.8125 48.625-48.625 48.625zm38.203126-177.316407v30.023438h-23.1875v23.191406h-30.027344v-23.191406h-23.1875v-30.023438h23.1875v-23.191406h30.027344v23.191406zm100.054687 177.316407c-26.8125 0-48.625-21.8125-48.625-48.625 0-26.808594 21.8125-48.621094 48.625-48.621094s48.625 21.8125 48.625 48.621094c0 26.8125-21.8125 48.625-48.625 48.625zm-38.203125-147.292969v-30.023438h76.40625v30.023438zm113.050781-99.019531h-287.949219v-174.203126h287.949219zm0 0"/></svg>