<svg height="512pt" viewBox="0 0 512 512" width="512pt" xmlns="http://www.w3.org/2000/svg"><path d="m127.75 342.664062c-22.929688 0-41.585938 18.652344-41.585938 41.585938 0 22.929688 18.65625 41.585938 41.585938 41.585938 22.933594 0 41.585938-18.65625 41.585938-41.585938 0-22.933594-18.652344-41.585938-41.585938-41.585938zm0 0"/><path d="m511 354.808594c0-10.804688-2.796875-20.964844-7.695312-29.804688l-99.703126-246.644531c-14.003906-45.328125-56.296874-78.359375-106.164062-78.359375-38.425781 0-72.351562 19.613281-92.304688 49.347656l-.035156-.023437-181.484375 261.007812c-.082031.113281-.15625.226563-.238281.339844l-2.523438 3.628906.039063.027344c-13.199219 20.101563-20.890625 44.128906-20.890625 69.921875 0 70.441406 57.308594 127.75 127.75 127.75 13.707031 0 26.914062-2.179688 39.304688-6.195312l.089843.292968 299.148438-91.980468c.769531-.222657 1.535156-.457032 2.289062-.703126l.421875-.132812-.003906-.011719c24.386719-8.242187 42-31.328125 42-58.460937zm-213.5625-300.914063c31.535156 0 57.191406 25.65625 57.191406 57.191407 0 31.535156-25.65625 57.191406-57.191406 57.191406s-57.191406-25.65625-57.191406-57.191406c0-31.535157 25.65625-57.191407 57.191406-57.191407zm-169.6875 401.882813c-39.441406 0-71.527344-32.085938-71.527344-71.527344s32.085938-71.527344 71.527344-71.527344 71.527344 32.085938 71.527344 71.527344-32.085938 71.527344-71.527344 71.527344zm321.539062-162.683594c-34.027343 0-61.710937 27.683594-61.710937 61.714844 0 18.199218 7.921875 34.578125 20.496094 45.886718l-173.34375 53.296876c13.125-20.066407 20.769531-44.027344 20.769531-69.742188 0-70.441406-57.308594-127.75-127.75-127.75-11.519531 0-22.683594 1.539062-33.308594 4.414062l93.0625-133.839843c7.773438 53.703125 54.105469 95.097656 109.933594 95.097656 46.980469 0 87.246094-29.320313 103.453125-70.621094l57.492187 142.21875c-2.96875-.441406-6.003906-.675781-9.09375-.675781zm0 0"/><path d="m297.4375 138.335938c15.027344 0 27.25-12.222657 27.25-27.25 0-15.027344-12.222656-27.25-27.25-27.25s-27.25 12.222656-27.25 27.25c0 15.027343 12.222656 27.25 27.25 27.25zm0 0"/></svg>