<svg height="512pt" viewBox="0 0 512 512" width="512pt" xmlns="http://www.w3.org/2000/svg"><path d="m200.554688 402.023438c-9.570313 0-17.359376 7.789062-17.359376 17.359374 0 9.570313 7.789063 17.359376 17.359376 17.359376 9.574218 0 17.359374-7.789063 17.359374-17.359376 0-9.570312-7.785156-17.359374-17.359374-17.359374zm0 0"/><path d="m200.554688 326.765625c-51.152344 0-92.617188 41.46875-92.617188 92.617187 0 51.152344 41.46875 92.617188 92.617188 92.617188 51.152343 0 92.617187-41.46875 92.617187-92.617188 0-51.148437-41.464844-92.617187-92.617187-92.617187zm0 139.976563c-26.113282 0-47.359376-21.246094-47.359376-47.359376 0-26.113281 21.246094-47.359374 47.359376-47.359374 26.113281 0 47.359374 21.246093 47.359374 47.359374 0 26.113282-21.246093 47.359376-47.359374 47.359376zm0 0"/><path d="m53.988281 300.855469v-33.945313h-53.9453122c-.0234376.882813-.0429688 1.769532-.0429688 2.65625v31.289063zm0 0"/><path d="m214.957031 197.71875 99.089844-124.933594c13.5-17.019531 33.703125-26.785156 55.433594-26.785156h142.519531v-46h-141.652344c-35.605468 0-68.851562 15.882812-91.226562 43.578125l-88.578125 109.65625-112.15625-112.699219h-78.386719v30h43.332031v121.546875c-17.023437 10.40625-30.15625 26.175781-37.308593 44.828125h77.964843v93.945313h-83.988281v99.609375h78.4375c-.324219-3.664063-.5-7.359375-.5-11.082032 0-32.75 12.753906-63.542968 35.914062-86.703124 23.160157-23.160157 53.953126-35.914063 86.703126-35.914063 32.753906 0 63.542968 12.753906 86.703124 35.914063 23.160157 23.160156 35.914063 53.953124 35.914063 86.703124 0 3.722657-.175781 7.417969-.5 11.082032h189.328125v-232.746094zm-139.175781-17.753906c-.820312.140625-1.632812.308594-2.445312.46875v-102.449219l87.277343 87.703125zm421.21875 86.945312h-55.867188v-30h55.867188zm0 0"/><path d="m337.550781 91.429688-60.507812 76.289062h234.957031v-91.71875h-142.519531c-12.515625 0-24.152344 5.621094-31.929688 15.429688zm0 0"/></svg>