<svg height="512pt" viewBox="0 -64 512 512" width="512pt" xmlns="http://www.w3.org/2000/svg"><path d="m333.636719 222.589844v43.398437l74.226562 32.691407v-43.601563l-.070312.160156zm0 0"/><path d="m333.636719 298.769531v7.277344c0 41.859375 32.929687 76.15625 74.226562 78.378906v-53.167969l-.070312.160157zm0 0"/><path d="m333.636719 146.402344v30.8125h-31.226563v-29.757813h-89.507812v29.757813h-34.550782v-29.460938l-74.136718 30.980469v43.667969l74.136718-30.96875v15.777344h34.550782v29.753906h89.507812v-29.753906h31.226563v-17.398438l74.226562 32.679688v-43.597657l-.070312.160157zm0 0"/><path d="m342.855469 41.5 65.007812 28.628906v-70.128906c-28.15625 1.511719-52.417969 17.9375-65.007812 41.5zm0 0"/><path d="m334.046875 70.398438c-.269531 2.617187-.410156 5.289062-.410156 7.976562v35.25l74.226562 32.6875v-43.597656l-.070312.160156zm0 0"/><path d="m437.863281 0v70.027344l65.527344-27.367188c-12.390625-24.160156-36.949219-41.089844-65.527344-42.660156zm0 0"/><path d="m511.710938 71.695312-73.847657 30.839844v43.667969l74.136719-30.957031v-36.871094c0-2.246094-.101562-4.476562-.289062-6.679688zm0 0"/><path d="m437.863281 222.390625 74.136719-30.957031v-43.679688l-74.136719 30.96875zm0 0"/><path d="m437.863281 298.578125 74.136719-30.96875v-43.679687l-74.136719 30.96875zm0 0"/><path d="m437.863281 384.425781c41.257813-2.269531 74.136719-36.550781 74.136719-78.378906v-5.929687l-74.136719 30.96875zm0 0"/><path d="m9.21875 41.507812 65 28.609376v-70.117188c-28.160156 1.519531-52.417969 17.9375-65 41.507812zm0 0"/><path d="m.410156 70.398438c-.269531 2.617187-.410156 5.289062-.410156 7.976562v35.25l74.21875 32.679688v-43.570313l-.0625.140625zm0 0"/><path d="m0 146.402344v43.410156l74.21875 32.667969v-43.566407l-.0625.140626zm0 0"/><path d="m0 222.589844v43.398437l74.21875 32.679688v-43.566407l-.0625.136719zm0 0"/><path d="m0 298.769531v7.277344c0 41.847656 32.910156 76.148437 74.21875 78.378906v-53.148437l-.0625.140625zm0 0"/><path d="m104.214844 298.589844 74.136718-30.980469v-43.667969l-74.136718 30.96875zm0 0"/><path d="m104.214844 384.425781c41.269531-2.269531 74.136718-36.550781 74.136718-78.378906v-5.929687l-74.136718 30.980468zm0 0"/><path d="m104.214844 0v70.039062l65.539062-27.378906c-12.398437-24.160156-36.949218-41.089844-65.539062-42.660156zm0 0"/><path d="m178.351562 78.375c0-2.246094-.097656-4.476562-.289062-6.679688l-73.847656 30.851563v43.667969l74.136718-30.96875zm0 0"/></svg>