<svg height="511pt" viewBox="-17 1 511 511.999" width="511pt" xmlns="http://www.w3.org/2000/svg"><path d="m342.535156 209.195312h48.128906v62.714844h-48.128906zm0 0"/><path d="m312.453125 271.910156v-92.796875h108.289063v92.796875h57.394531v-150.449218h-222.445313v150.449218zm0 0"/><path d="m420.742188 301.992188v91.691406h-108.289063v-91.691406h-56.761719v150.453124h96.183594v10.839844c0 10.273438-8.359375 18.636719-18.632812 18.636719h-138.75c-10.273438 0-18.632813-8.359375-18.632813-18.636719v-10.839844h2.898437c26.726563 0 48.46875-21.742187 48.46875-48.46875v-107.53125c0-26.726562-21.742187-48.46875-48.46875-48.46875h-8.929687v-200.6875l-55.964844-47.289062-55.964843 47.289062v34.105469l16.789062 15.304688-16.789062 15.304687v17.75l16.789062 15.304688-16.789062 15.304687v87.613281h-8.929688c-26.726562 0-48.46875 21.742188-48.46875 48.46875v107.527344c0 26.726563 21.742188 48.472656 48.46875 48.472656h96.808594v10.839844c0 26.859375 21.855468 48.714844 48.714844 48.714844h138.75c26.859374 0 48.710937-21.855469 48.710937-48.714844v-10.839844h96.183594v-150.453124zm-260.0625 81.492187h-93.628907v-30.078125h93.628907zm0 0"/><path d="m342.535156 301.992188h48.128906v61.613281h-48.128906zm0 0"/></svg>