<svg height="511pt" viewBox="0 1 511 511.999" width="511pt" xmlns="http://www.w3.org/2000/svg"><path d="m246.234375 239.539062c-14.734375 0-26.722656 11.988282-26.722656 26.722657 0 14.738281 11.988281 26.726562 26.722656 26.726562 14.738281 0 26.726563-11.988281 26.726563-26.726562 0-14.734375-11.988282-26.722657-26.726563-26.722657zm0 0"/><path d="m246.234375 178.871094c-48.1875 0-87.390625 39.203125-87.390625 87.390625 0 48.191406 39.203125 87.394531 87.390625 87.394531 48.191406 0 87.394531-39.203125 87.394531-87.394531 0-48.1875-39.203125-87.390625-87.394531-87.390625zm0 144.125c-31.28125 0-56.734375-25.449219-56.734375-56.734375 0-31.28125 25.453125-56.734375 56.734375-56.734375 31.285156 0 56.734375 25.453125 56.734375 56.734375 0 31.285156-25.449219 56.734375-56.734375 56.734375zm0 0"/><path d="m438.8125 255.453125h73.65625c-5.375-137.039063-114.765625-247.835937-251.226562-255.453125v73.738281c95.878906 7.414063 172.335937 85.246094 177.570312 181.714844zm0 0"/><path d="m408.660156 285.460938.375-15.371094c.035156-1.351563.050782-2.707032.050782-4.066406 0-89.796876-73.050782-162.851563-162.847657-162.851563h-15.007812v-82.179687c-59.992188 3.589843-115.898438 28.648437-158.757813 71.507812-46.410156 46.414062-71.972656 108.125-71.972656 173.761719 0 65.640625 25.5625 127.347656 71.972656 173.761719 46.414063 46.414062 108.125 71.976562 173.765625 71.976562 65.636719 0 127.347657-25.5625 173.761719-71.976562 41.855469-41.855469 66.722656-96.160157 71.207031-154.5625zm-255.726562-176.191407c7.796875-4.535156 17.789062-1.886719 22.320312 5.90625 4.53125 7.796875 1.882813 17.789063-5.910156 22.320313s-17.785156 1.882812-22.316406-5.910156c-4.53125-7.796876-1.886719-17.789063 5.90625-22.316407zm-66.035156 67.75c4.484374-7.824219 14.457031-10.53125 22.28125-6.050781 7.824218 4.480469 10.53125 14.457031 6.050781 22.277344-4.480469 7.824218-14.457031 10.535156-22.28125 6.054687-7.820313-4.484375-10.53125-14.457031-6.050781-22.28125zm-23.273438 91.703125c-.03125-9.019531 7.246094-16.355468 16.265625-16.386718 9.011719-.035157 16.351563 7.246093 16.386719 16.261718.03125 9.015625-7.25 16.351563-16.265625 16.386719-9.015625.03125-16.351563-7.25-16.386719-16.261719zm48.058594 96.921875c-7.789063 4.539063-17.785156 1.90625-22.324219-5.882812-4.539063-7.789063-1.90625-17.785157 5.882813-22.324219 7.785156-4.539062 17.78125-1.90625 22.324218 5.882812 4.539063 7.785157 1.90625 17.78125-5.882812 22.324219zm67.78125 53.988281c-4.46875 7.828126-14.441406 10.550782-22.269532 6.078126-7.828124-4.46875-10.550781-14.441407-6.078124-22.269532 4.46875-7.828125 14.441406-10.550781 22.269531-6.078125 7.828125 4.46875 10.550781 14.441407 6.078125 22.269531zm68.535156 29.25c-9.015625 0-16.324219-7.308593-16.324219-16.328124 0-9.015626 7.308594-16.324219 16.324219-16.324219s16.324219 7.308593 16.324219 16.324219c0 9.019531-7.308594 16.328124-16.324219 16.328124zm91.136719-25.386718c-7.804688 4.511718-17.789063 1.839844-22.300781-5.96875-4.511719-7.804688-1.839844-17.789063 5.96875-22.300782 7.804687-4.511718 17.789062-1.839843 22.300781 5.964844 4.507812 7.808594 1.839843 17.792969-5.96875 22.304688zm-92.902344-39.828125c-64.734375 0-117.402344-52.667969-117.402344-117.40625 0-64.734375 52.667969-117.402344 117.402344-117.402344 64.738281 0 117.40625 52.667969 117.40625 117.402344 0 64.738281-52.667969 117.40625-117.40625 117.40625zm159.109375-27.757813c-4.5 7.8125-14.480469 10.496094-22.292969 5.996094-7.8125-4.503906-10.496093-14.484375-5.992187-22.296875 4.5-7.8125 14.480468-10.496094 22.292968-5.992187 7.8125 4.5 10.496094 14.480468 5.992188 22.292968zm0 0"/></svg>