<svg height="512pt" viewBox="0 0 512 512" width="512pt" xmlns="http://www.w3.org/2000/svg"><path d="m149.273438 224.304688 7.84375-13.546876-31.203126-50.550781c-16.46875 17.898438-28.914062 39.550781-35.886718 63.511719zm0 0"/><path d="m236.859375 371.851562-28.1875 52.394532c11.203125 2.5 22.847656 3.828125 34.796875 3.828125 13.15625 0 25.945312-1.609375 38.1875-4.625l-29.140625-51.585938zm0 0"/><path d="m243.46875 249.929688c-10.128906 0-18.367188 8.242187-18.367188 18.367187 0 10.128906 8.238282 18.367187 18.367188 18.367187 10.125 0 18.367188-8.238281 18.367188-18.367187 0-10.125-8.242188-18.367187-18.367188-18.367187zm0 0"/><path d="m150.472656 314.328125-59.476562 1.769531c7.472656 23.777344 20.363281 45.171875 37.21875 62.742188l30.074218-50.945313zm0 0"/><path d="m294.839844 326.296875 25.601562-44.292969 82.140625.753906c.429688-4.765624.664063-9.585937.664063-14.460937 0-6.089844-.339844-12.113281-1.011719-18.035156l-82.859375 2.527343-25.558594-44.316406 27.851563-47.269531c-7.550781-10.589844-13.292969-22.242187-17.082031-34.574219l-36.613282 68.167969h-51.160156l-40.445312-71.480469c-9.824219 4.5625-19.109376 10.09375-27.734376 16.476563l43.503907 70.46875-25.632813 44.269531-82.144531-.8125c-.433594 4.804688-.671875 9.664062-.671875 14.578125 0 6.058594.351562 12.03125 1.011719 17.917969l82.847656-2.464844 25.53125 44.328125-41.730469 70.695313c8.816406 6.242187 18.292969 11.605468 28.292969 15.984374l39.265625-72.980468 51.160156.039062 40.394532 71.511719c9.898437-4.589844 19.253906-10.164063 27.933593-16.59375zm-51.371094-9.574219c-26.703125 0-48.425781-21.722656-48.425781-48.425781s21.722656-48.425781 48.425781-48.425781 48.425781 21.722656 48.425781 48.425781-21.722656 48.425781-48.425781 48.425781zm0 0"/><path d="m337.691406 312.222656-7.832031 13.550782 31.242187 50.527343c16.457032-17.910156 28.886719-39.570312 35.839844-63.539062zm0 0"/><path d="m511.367188 107.5625h-26.433594v-30.054688h27.066406c-2.0625-14.425781-7.472656-27.765624-15.421875-39.210937l-18.628906 18.628906-21.25-21.253906 18.945312-18.949219c-11.433593-8.453125-24.898437-14.316406-39.527343-16.722656v27.835938h-30.058594v-27.835938c-14.628906 2.410156-28.09375 8.269531-39.527344 16.726562l19.667969 19.667969-21.253907 21.253907-19.347656-19.351563c-7.949218 11.449219-13.359375 24.789063-15.421875 39.210937h27.179688v30.054688h-26.542969c1.59375 8.5625 4.371094 16.703125 8.167969 24.253906 3.539062 7.023438 7.945312 13.535156 13.085937 19.386719 2.042969 2.324219 4.199219 4.539063 6.460938 6.640625.652344.621094 1.324218 1.222656 1.996094 1.816406 14.15625 12.421875 32.171874 20.566406 52.03125 22.390625 2.8125.273438 5.660156.402344 8.535156.402344 44.933594 0 82.324218-32.265625 90.277344-74.890625zm-75.25 12.171875h-30.058594v-54.398437h30.058594zm0 0"/><path d="m424.917969 212.441406c5.449219 17.664063 8.386719 36.417969 8.386719 55.855469 0 104.671875-85.164063 189.835937-189.835938 189.835937s-189.835938-85.164062-189.835938-189.835937 85.164063-189.835937 189.835938-189.835937c19.40625 0 38.140625 2.925781 55.785156 8.367187.550782-18.390625 5.167969-36.082031 13.410156-52.042969-22.179687-6.546875-45.421874-9.957031-69.195312-9.957031-65.03125 0-126.175781 25.328125-172.160156 71.3125s-71.308594 107.125-71.308594 172.15625 25.324219 126.175781 71.308594 172.160156c45.988281 45.984375 107.128906 71.308594 172.160156 71.308594s126.171875-25.324219 172.15625-71.308594c45.984375-45.988281 71.3125-107.128906 71.3125-172.160156 0-23.800781-3.417969-47.070313-9.980469-69.273437-15.960937 8.242187-33.648437 12.859374-52.039062 13.417968zm0 0"/><path d="m249.996094 164.738281 28.15625-52.417969c-11.171875-2.484374-22.777344-3.800781-34.683594-3.800781-13.199219 0-26.027344 1.621094-38.304688 4.652344l29.179688 51.566406zm0 0"/><path d="m328.601562 208.632812 7.824219 13.566407 59.476563-1.8125c-1.214844-3.867188-2.566406-7.664063-4.070313-11.394531-17.894531-4.386719-34.535156-12.792969-48.84375-24.777344zm0 0"/></svg>