<svg height="512pt" viewBox="-16 0 511 512" width="512pt" xmlns="http://www.w3.org/2000/svg"><path d="m93.628906 36.269531-93.128906 81.492188 31.589844 36.097656 91.851562-82.949219zm0 0"/><path d="m196.96875 233.589844h133v133h-133zm0 0"/><path d="m409.460938 0h-229.882813c-23.65625 0-42.90625 19.25-42.90625 42.910156v56.929688l-93.230469 84.210937v255.269531c0 40.078126 31.417969 72.679688 70.039063 72.679688h295.980469c38.617187 0 70.039062-32.601562 70.039062-72.679688v-366.640624c0-40.078126-31.421875-72.679688-70.039062-72.679688zm-229.882813 30h180.191406l-46.949219 53.398438h-146.148437v-40.488282c0-7.121094 5.789063-12.910156 12.90625-12.910156zm226.394531 391.386719-21.214844 21.210937-46.007812-46.007812h-150.566406l-46.007813 46.007812-21.210937-21.210937 46.003906-46.007813v-150.570312l-46.003906-46.003906 21.210937-21.214844 46 46h150.582031l46-46 21.214844 21.214844-46.003906 46v150.578124zm0 0"/></svg>