<svg height="512pt" viewBox="-61 0 512 512" width="512pt" xmlns="http://www.w3.org/2000/svg"><path d="m97.585938 161h44.789062v257.171875h-44.789062zm0 0"/><path d="m22.269531 161h45.316407v257.171875h-45.316407zm0 0"/><path d="m389.539062 131v-63.828125h-54.730468v-67.171875h-280.074219v67.171875h-54.734375v63.828125zm-304.804687-101h220.074219v37.171875h-220.074219zm0 0"/><path d="m0 448.171875h389.539062v63.828125h-389.539062zm0 0"/><path d="m172.375 161h44.789062v257.171875h-44.789062zm0 0"/><path d="m321.953125 161h45.316406v257.171875h-45.316406zm0 0"/><path d="m247.164062 161h44.789063v257.171875h-44.789063zm0 0"/></svg>