<svg height="512pt" viewBox="0 0 512.00002 512" width="512pt" xmlns="http://www.w3.org/2000/svg"><path d="m429.617188 218.304688h27.292968v30h-27.292968zm0 0"/><path d="m468.195312 218.304688h43.804688v30h-43.804688zm0 0"/><path d="m420.453125 178.257812 25.992187-8.324218 9.152344 28.570312-25.996094 8.324219zm0 0"/><path d="m457.148438 166.507812 41.714843-13.363281 9.148438 28.570313-41.710938 13.359375zm0 0"/><path d="m420.445312 288.324219 9.152344-28.574219 25.992188 8.324219-9.148438 28.574219zm0 0"/><path d="m457.203125 300.101562 9.152344-28.570312 41.714843 13.359375-9.148437 28.570313zm0 0"/><path d="m375.011719 248.5625h39.949219v-30h-39.949219v-49.328125h-61.300781v128.144531h61.300781zm0 0"/><path d="m116 435.945312v-4.765624h29.753906l23.417969-66.902344h70.539063l22.882812-66.898438h21.117188v-128.144531h-90.542969v-17.992187c27.078125-6.539063 47.257812-30.957032 47.257812-60.015626v-6.894531h-124.515625v6.894531c0 29.058594 20.179688 53.476563 47.257813 60.015626v17.992187h-107.234375v20.015625h-55.933594v88.628906h55.933594v19.5h30.070312l-46.839844 133.800782h46.835938v4.765624c0 41.9375 34.117188 76.054688 76.054688 76.054688h349.945312v-30h-349.945312c-25.394532 0-46.054688-20.660156-46.054688-46.054688zm76.589844-138.566406h38.300781l-12.625 36.898438h-38.589844zm0 0"/><path d="m115.910156 0h124.515625v54.332031h-124.515625zm0 0"/></svg>