<svg height="512pt" viewBox="-31 0 512 512" width="512pt" xmlns="http://www.w3.org/2000/svg"><path d="m247.90625 307.410156-22.878906 26.96875-22.878906-26.96875c-.863282-1.03125-17.429688-20.609375-37.410157-48.25h-34.46875l87.425781 126.828125 149.832032-97.179687v-29.648438h-82.210938c-19.980468 27.640625-36.550781 47.21875-37.410156 48.25zm0 0"/><path d="m367.527344 324.566406-132.796875 86.132813 12.75 18.5h120.046875zm0 0"/><path d="m82.527344 429.199219h128.515625l-117.210938-170.039063h-11.304687zm0 0"/><path d="m335.75 178.394531c-7.816406 15.570313-17.710938 32.460938-29.722656 50.765625h91.5v230.039063h-345v-230.039063h91.5c-12.011719-18.304687-21.910156-35.195312-29.722656-50.765625h-114.304688v333.605469h450.054688v-333.605469zm0 0"/><path d="m225.027344 0c-56.890625 0-103 46.121094-103 103 0 34.558594 30.441406 86.210938 58.21875 126.160156 7.730468 11.109375 15.25 21.320313 21.851562 30 13.339844 17.53125 22.929688 28.839844 22.929688 28.839844s9.589844-11.308594 22.929687-28.839844c6.601563-8.679687 14.121094-18.890625 21.851563-30 27.777344-39.949218 58.21875-91.601562 58.21875-126.160156 0-56.878906-46.109375-103-103-103zm0 163.949219c-35 0-63.472656-28.476563-63.472656-63.476563 0-34.996094 28.472656-63.472656 63.472656-63.472656s63.472656 28.476562 63.472656 63.472656c0 35-28.472656 63.476563-63.472656 63.476563zm0 0"/><path d="m225.027344 67c-18.457032 0-33.472656 15.015625-33.472656 33.472656 0 18.460938 15.015624 33.476563 33.472656 33.476563 18.457031 0 33.472656-15.015625 33.472656-33.476563 0-18.457031-15.015625-33.472656-33.472656-33.472656zm0 0"/></svg>