<svg height="512pt" viewBox="-62 0 512 512" width="512pt" xmlns="http://www.w3.org/2000/svg"><path d="m257.089844 451.289062h-155.253906v30.714844h-50.34375v29.996094h255.9375v-29.996094h-50.339844zm0 0"/><path d="m358.925781 366.207031v-18.523437c0-35.269532-28.695312-63.964844-63.964843-63.964844h-37.871094v-159.671875h-62.574219v-30.5c14.121094-4.71875 25.300781-15.898437 30.019531-30.023437h31.402344v31.398437h102.988281v-94.921875h-102.988281v33.527344h-31.402344c-6.292968-18.839844-24.089844-32.464844-45.019531-32.464844s-38.726563 13.625-45.019531 32.464844h-31.507813v-33.527344h-102.988281v94.925781h102.988281v-31.402343h31.507813c4.71875 14.125 15.898437 25.304687 30.023437 30.023437v30.5h-62.683593v37.476563h-5.714844c-41.957032 0-76.09375 34.136718-76.09375 76.09375 0 41.960937 34.136718 76.097656 76.09375 76.097656h5.714844v107.578125h155.253906v-107.578125h37.871094c18.726562 0 33.96875 15.238281 33.96875 33.96875v18.523437h-28.246094v92.65625h86.519531v-92.65625zm-257.089843-82.488281h-5.714844c-25.417969 0-46.097656-20.679688-46.097656-46.097656 0-25.417969 20.679687-46.097656 46.097656-46.097656h5.714844zm0 0"/></svg>