<svg height="512pt" viewBox="-27 0 512 512" width="512pt" xmlns="http://www.w3.org/2000/svg"><path d="m310.476562 104v80.667969h-40.71875v37.035156h120.113282v-37.035156h-49.394532v-80.667969h15.589844l14.527344-39.585938v-64.414062h-89.675781v64.414062l14.527343 39.585938zm0 0"/><path d="m457.761719 295.101562c0-22.074218-16.398438-40.378906-37.652344-43.398437h-180.351563v-48.367187h-36.648437l-80.523437 64.742187v220.988281l44.050781 22.933594h216.664062v-.820312c20.152344-3.945313 35.414063-21.730469 35.414063-43.023438 0-7.75-2.03125-15.03125-5.574219-21.351562 11.652344-7.890626 19.328125-21.230469 19.328125-36.332032 0-7.933594-2.128906-15.375-5.828125-21.800781 11.292969-7.941406 18.695313-21.0625 18.695313-35.886719 0-8.023437-2.175782-15.546875-5.957032-22.023437 11.117188-7.964844 18.382813-20.976563 18.382813-35.660157zm0 0"/><path d="m0 244.15625h92.585938v267.84375h-92.585938zm0 0"/></svg>