<svg height="511pt" viewBox="0 1 511 511.99955" width="511pt" xmlns="http://www.w3.org/2000/svg"><path d="m.5 401.492188 52.5625-52.5625 110.5 110.503906-52.558594 52.5625zm0 0"/><path d="m.5 110.503906 110.503906-110.503906 52.5625 52.5625-110.503906 110.503906zm0 0"/><path d="m349.433594 52.566406 52.5625-52.56249975 110.5 110.49999975-52.5625 52.5625zm0 0"/><path d="m438.21875 328.234375-55.003906-12.328125-59.90625-59.90625 59.90625-59.90625 55.003906-12.328125-109.484375-109.484375-12.328125 55.003906-59.90625 59.910156-59.90625-59.910156-12.324219-55.003906-109.488281 109.484375 55.007812 12.328125 59.90625 59.90625-59.90625 59.90625-55.007812 12.324219 109.488281 109.488281 12.324219-55.003906 59.90625-59.90625 59.90625 59.90625 12.328125 55.003906zm0 0"/><path d="m349.429688 459.4375 110.503906-110.503906 52.5625 52.5625-110.503906 110.503906zm0 0"/></svg>