<svg height="512pt" viewBox="-27 0 512 512.002" width="512pt" xmlns="http://www.w3.org/2000/svg"><path d="m270.089844 182.761719-.011719 38.601562h96.320313v-39.054687c29.703124-17.203125 48.417968-49.152344 48.417968-83.925782 0-20.0625-6.082031-39.320312-17.585937-55.6875-11.234375-15.976562-26.796875-28.074218-45-34.976562l-20.347657-7.71875v65.140625l-14.027343 8.660156-14.027344-8.660156v-65.140625l-20.34375 7.714844c-18.203125 6.90625-33.765625 19.003906-45 34.980468-11.503906 16.367188-17.585937 35.621094-17.585937 55.6875 0 35.175782 19.011718 67.292969 49.191406 84.378907zm0 0"/><path d="m458.300781 294.84375c0-22.097656-16.417969-40.425781-37.695312-43.445312h-180.5625v-48.425782h-36.691407l-80.621093 64.820313v221.246093l44.101562 22.964844h216.921875v-.824218c20.175782-3.949219 35.453125-21.757813 35.453125-43.070313 0-7.761719-2.03125-15.050781-5.578125-21.382813 11.664063-7.894531 19.347656-21.253906 19.347656-36.371093 0-7.945313-2.128906-15.394531-5.835937-21.828125 11.308594-7.949219 18.722656-21.085938 18.722656-35.925782 0-8.035156-2.1875-15.5625-5.976562-22.046874 11.136719-7.972657 18.414062-21.003907 18.414062-35.710938zm0 0"/><path d="m0 243.84375h92.695312v268.15625h-92.695312zm0 0"/></svg>