<svg height="448pt" viewBox="-24 0 448 448" width="448pt" xmlns="http://www.w3.org/2000/svg"><path d="m312 280v16h-28.6875l-32 32h60.6875v16h-76.6875l-29.65625 29.65625c-1.027344 1.027344-2.3125 1.753906-3.71875 2.105469l-64 16c-2.726562.679687-5.609375-.121094-7.597656-2.109375-1.984375-1.988282-2.78125-4.871094-2.101563-7.597656l16-64c.355469-1.402344 1.082031-2.6875 2.105469-3.710938l198.0625-198.054688c2.296875-2.25 4.84375-4.226562 7.59375-5.890624v-30.398438h-72c-4.417969 0-8-3.582031-8-8v-72h-272v448h352v-220.679688l-52.679688 52.679688zm-72-80h-88v-16h88zm-24-64h72v16h-72zm-96-48h32v16h-32zm-80 0h64v16h-64zm0 48h160v16h-160zm0 48h96v16h-96zm0 48h152v16h-152zm0 48h104v16h-104zm72 112h-72v-16h72zm8-48h-80v-16h80zm0 0"/><path d="m288 11.3125v52.6875h52.6875zm0 0"/><path d="m163.316406 320.003906 172.6875-172.6875 36.683594 36.683594-172.6875 172.6875zm0 0"/><path d="m156.335938 335.648438-9.34375 37.351562 37.359374-9.335938zm0 0"/><path d="m374.0625 120c-6.878906-.023438-13.484375 2.710938-18.335938 7.59375l-8.40625 8.40625 36.679688 36.6875 8.40625-8.398438c7.421875-7.421874 9.640625-18.578124 5.625-28.273437s-13.476562-16.015625-23.96875-16.015625zm0 0"/></svg>